<?xml version="1.0" encoding="iso-8859-1"?>
<!-- Generator: Adobe Illustrator 19.0.0, SVG Export Plug-In . SVG Version: 6.00 Build 0)  -->
<svg xmlns="http://www.w3.org/2000/svg" xmlns:xlink="http://www.w3.org/1999/xlink" version="1.1" id="Layer_1" x="0px" y="0px" viewBox="0 0 511.998 511.998" style="enable-background:new 0 0 511.998 511.998;" xml:space="preserve" width="512px" height="512px">
<g>
	<g>
		<path d="M257.395,256.2c-63.25,0-114.49,51.24-114.49,114.49s51.24,114.49,114.49,114.49s114.89-51.24,114.89-114.49    S320.644,256.2,257.395,256.2z M257.395,477.573c-58.846,0-106.483-47.637-106.483-106.483    c0-58.846,48.037-106.883,106.483-106.883c58.846,0,106.883,48.038,106.883,106.483    C364.278,429.135,316.24,477.573,257.395,477.573z" fill="#e1375c"/>
	</g>
</g>
<g>
	<g>
		<path d="M440.338,232.982c0-0.4,0-0.4,0-0.8v-4.003c0-4.403-3.603-8.007-8.007-8.007h-32.025c-4.403,0-8.007,3.603-8.007,8.007    v4.003h-40.832l-14.411-32.425c-5.204-11.208-19.215-19.615-32.025-19.615h-4.804v-12.81    c16.013-3.603,28.022-18.014,28.022-35.228V128.1h12.01c11.209,0,20.015-8.807,20.015-20.015V20.015    C360.275,8.807,351.468,0,340.26,0H172.128c-11.208,0-20.015,8.807-20.015,20.015v88.069c0,11.208,8.807,20.015,20.015,20.015    h12.01v4.003c0,17.213,12.01,31.625,28.022,35.228v12.81h-5.204c-12.41,0-26.42,8.807-32.025,20.015l-14.411,32.025h-12.41v-12.01    c0-2.402-1.602-4.003-4.003-4.003h-64.05c-2.402,0-4.003,1.602-4.003,4.003v12.01c-15.612,1.201-28.022,14.411-28.022,30.423    v219.371c0,16.813,13.61,30.023,30.023,30.023h355.878c16.813,0,30.023-13.61,30.023-30.023v-219.37    C464.356,247.793,453.948,235.784,440.338,232.982z M432.331,228.178v4.003h-32.025v-4.003H432.331z M172.128,120.094    c-6.805,0-12.01-5.204-12.01-12.01V20.015c0-6.805,5.204-12.01,12.01-12.01H340.26c6.805,0,12.01,5.204,12.01,12.01v88.069    c0,6.805-5.204,12.01-12.01,12.01H172.128z M192.143,132.103V128.1h128.1v4.003c0,15.612-12.41,28.022-28.022,28.022h-72.057    C204.553,160.125,192.143,147.715,192.143,132.103z M220.165,168.132h72.057v12.01h-72.057V168.132z M206.955,188.147h98.477    c4.403,0,9.207,1.602,13.21,4.003H193.745C198.148,189.748,202.552,188.147,206.955,188.147z M84.059,224.175h56.044v8.007H84.059    V224.175z M160.118,504.394H78.055c-10.008,0-18.415-6.806-21.217-16.013h100.478c1.201,0,2.802,1.201,2.802,2.802V504.394z     M456.352,482.377h-0.002c0,12.41-10.008,22.017-22.017,22.017H392.3V284.222c0-2.402-1.602-4.003-4.003-4.003    s-4.003,1.602-4.003,4.003v220.172H168.125v-13.21c0-5.605-4.804-10.808-10.808-10.808H56.037v-217.77    c0-12.01,10.008-22.418,22.017-22.418h2.002h64.05h19.615c1.602,0,3.203-0.8,3.603-2.402l15.212-34.427    c0.4-1.201,1.201-2.402,2.002-3.203h143.312c0.8,1.201,1.602,2.002,2.002,3.203l15.212,34.427c0.8,1.602,2.002,2.402,3.603,2.402    h35.628v12.01c0,2.402,1.602,4.003,4.003,4.003c2.401,0,4.003-1.602,4.003-4.003v-12.01h8.007h32.025h2.002    c12.01,0,22.017,10.408,22.017,22.418V482.377z" fill="#e1375c"/>
	</g>
</g>
<g>
	<g>
		<path d="M304.231,208.163h-96.075c-2.402,0-4.003,1.602-4.003,4.003v16.013c0,2.401,1.602,4.003,4.003,4.003h96.075    c2.402,0,4.003-1.602,4.003-4.003v-16.013C308.234,209.764,306.632,208.163,304.231,208.163z M300.229,224.176h-88.069v-8.007    h88.069V224.176z" fill="#e1375c"/>
	</g>
</g>
<g>
	<g>
		<path d="M92.465,255.4c-11.208,0-20.416,9.207-20.416,20.416c0,11.208,9.207,20.416,20.416,20.416    c11.208,0,20.416-9.207,20.416-20.416C112.881,264.607,103.675,255.4,92.465,255.4z M92.465,288.225    c-6.805,0-12.41-5.605-12.41-12.41c0-6.805,5.605-12.41,12.41-12.41c6.805,0,12.41,5.605,12.41,12.41    C104.875,282.621,99.271,288.225,92.465,288.225z" fill="#e1375c"/>
	</g>
</g>
<g>
	<g>
		<path d="M118.486,291.428c-6.005,0-10.408,4.803-10.408,10.408s4.804,10.408,10.408,10.408c6.005,0,10.408-4.803,10.408-10.408    S124.491,291.428,118.486,291.428z M118.486,304.638c-1.601,0-2.402-1.201-2.402-2.402s1.201-2.402,2.402-2.402    c1.201,0,2.402,1.201,2.402,2.402S120.087,304.638,118.486,304.638z" fill="#e1375c"/>
	</g>
</g>
<g>
	<g>
		<path d="M338.658,314.245c-1.201-2.002-3.603-2.402-5.605-0.8c-2.001,0.8-2.401,3.203-1.201,5.204    c10.808,15.212,16.413,32.825,16.413,51.64c0,49.639-40.432,90.07-90.07,90.07s-90.07-40.432-90.07-90.07    c0-49.638,40.432-90.07,90.07-90.07c20.015,0,38.83,6.405,54.843,18.415c1.602,1.201,4.403,1.201,5.605-0.8    c1.201-1.602,1.201-4.403-0.8-5.605c-17.213-12.81-37.63-20.015-59.647-20.015c-54.042,0-97.677,44.035-97.677,98.077    s44.035,98.077,98.077,98.077s97.677-44.035,97.677-98.077C356.272,349.874,350.267,330.659,338.658,314.245z" fill="#e1375c"/>
	</g>
</g>
<g>
	<g>
		<path d="M336.257,20.016H176.132c-2.402,0-4.003,1.602-4.003,4.003v80.063c0,2.402,1.602,4.003,4.003,4.003h160.125    c2.401,0,4.003-1.602,4.003-4.003V24.019C340.26,21.617,338.658,20.016,336.257,20.016z M332.254,40.032h-8.007    c-2.402,0-4.003,1.601-4.003,4.003s1.602,4.003,4.003,4.003h8.007v12.01h-8.007c-2.402,0-4.003,1.601-4.003,4.003    c0,2.402,1.602,4.003,4.003,4.003h8.007v12.01h-8.007c-2.402,0-4.003,1.601-4.003,4.003c0,2.402,1.602,4.003,4.003,4.003h8.007    v12.01H180.135v-12.01h112.088c2.402,0,4.003-1.601,4.003-4.003c0-2.402-1.602-4.003-4.003-4.003H180.135v-12.01h112.088    c2.402,0,4.003-1.601,4.003-4.003c0-2.402-1.602-4.003-4.003-4.003H180.135v-12.01h112.088c2.402,0,4.003-1.601,4.003-4.003    s-1.602-4.003-4.003-4.003H180.135v-12.01h152.119V40.032z" fill="#e1375c"/>
	</g>
</g>
<g>
	<g>
		<path d="M301.83,345.87c-1.201-2.002-3.603-2.402-5.605-1.602c-2.002,1.201-2.802,3.603-1.602,5.605    c3.603,6.405,5.605,13.21,5.605,20.816c0,23.218-18.815,42.033-42.033,42.033c-23.218-0.4-42.033-19.215-42.033-42.433    s18.815-42.032,42.033-42.032c8.407,0,16.413,2.402,23.618,7.205c2.002,1.201,4.403,0.8,5.605-1.201s0.8-4.403-1.201-5.605    c-8.407-5.605-18.014-8.407-28.022-8.407c-27.622,0-50.039,22.418-50.039,50.039s22.417,50.039,50.039,50.039    s50.039-22.417,50.039-50.039C308.235,361.482,305.832,353.076,301.83,345.87z" fill="#e1375c"/>
	</g>
</g>
<g>
</g>
<g>
</g>
<g>
</g>
<g>
</g>
<g>
</g>
<g>
</g>
<g>
</g>
<g>
</g>
<g>
</g>
<g>
</g>
<g>
</g>
<g>
</g>
<g>
</g>
<g>
</g>
<g>
</g>
</svg>
