<?xml version="1.0" encoding="utf-8"?>
<!-- Generator: Adobe Illustrator 22.1.0, SVG Export Plug-In . SVG Version: 6.00 Build 0)  -->
<svg version="1.1" id="Layer_1_copy_2" xmlns="http://www.w3.org/2000/svg" xmlns:xlink="http://www.w3.org/1999/xlink" x="0px"
	 y="0px" width="392" height="97" viewBox="0 0 594.8 211.5" style="enable-background:new 0 0 594.8 211.5;" xml:space="preserve">
<style type="text/css">
	.st0{fill:#E02850;}
	.st1{filter:url(#Adobe_OpacityMaskFilter);}
	.st2{fill:#FFFFFF;}
	.st3{mask:url(#SVGID_1_);}
	.st4{fill:url(#SVGID_2_);}
	.st5{fill:url(#SVGID_3_);}
	.st6{fill:url(#SVGID_4_);}
	.st7{fill:url(#SVGID_5_);}
	.st8{fill:url(#SVGID_6_);}
	.st9{fill:url(#SVGID_7_);}
	.st10{fill:url(#SVGID_8_);}
	.st11{fill:url(#SVGID_9_);}
	.st12{fill:url(#SVGID_10_);}
	.st13{fill:url(#SVGID_11_);}
	.st14{fill:url(#SVGID_12_);}
	.st15{fill:url(#SVGID_13_);}
	.st16{fill:url(#SVGID_14_);}
	.st17{fill:url(#SVGID_15_);}
	.st18{fill:url(#SVGID_16_);}
	.st19{fill:url(#SVGID_17_);}
	.st20{fill:url(#SVGID_18_);}
	.st21{fill:url(#SVGID_19_);}
	.st22{fill:url(#SVGID_20_);}
	.st23{fill:url(#SVGID_21_);}
	.st24{fill:url(#SVGID_22_);}
	.st25{fill:url(#SVGID_23_);}
	.st26{fill:url(#SVGID_24_);}
	.st27{fill:url(#SVGID_25_);}
	.st28{fill:url(#SVGID_26_);}
	.st29{fill:url(#SVGID_27_);}
</style>
<g>
	<g>
		<path class="st0" d="M232.6,108.6c0-6.2-1.5-11.6-4.6-16c-3-4.2-6.7-8-11-11c-4.3-3-9.1-5.7-14.2-7.8c-5-2.1-9.7-4.2-13.9-6.2
			c-4.1-1.9-7.6-4.1-10.4-6.3c-2.5-2-3.7-4.3-3.7-7.1c0-2.9,0.8-5,2.5-6.5c1.8-1.6,4.1-2.9,6.7-3.6c2.7-0.8,5.6-1.3,8.7-1.5
			c3.2-0.2,6-0.3,8.3-0.3c3.9,0,7.7,0.3,11.2,0.9c3.6,0.6,7.4,1.4,11.3,2.3l3.1,0.8l0.6-1c0.4-0.6,0.9-1.7,1.7-3.3
			c0.7-1.5,1.5-3.2,2.4-4.9c0.9-1.7,1.7-3.4,2.6-5.1c0.9-1.7,1.5-3,1.9-4l0.6-1.6l-1.7-0.4c-3-0.7-6-1.2-8.8-1.4
			c-2.8-0.2-5.7-0.3-8.7-0.3c-3.6,0-7.6,0.4-11.9,1.1c-4.3,0.8-8.6,1.9-13,3.5c-4.4,1.6-8.6,3.5-12.7,5.8c-4.1,2.3-7.8,5-11,8.1
			c-3.2,3.1-5.8,6.5-7.8,10.3c-2,3.8-3,8.1-3,12.6c0,5,1.6,9.1,4.7,12.4c3,3.1,6.7,5.9,11,8.3c4.3,2.4,9,4.6,14.1,6.6
			c4.9,2,9.6,4.2,13.7,6.8c4.1,2.5,7.5,5.4,10.3,8.8c2.6,3.2,4,7.3,4,12.2c0,3.6-1,6.7-2.9,9.4c-2,2.7-4.6,5.1-7.6,6.9
			c-3.1,1.9-6.6,3.3-10.2,4.2c-3.6,0.9-7.1,1.4-10.3,1.4c-10.5,0-20.3-1.7-29.1-5.1c-5.3-2.1-10.6-4.8-15.8-8.1
			c3.6-0.5,7.1-1.3,10.4-2.2c7-2,13.8-5.6,20.1-10.7l0.6-0.5v-8l-2.4,1.9c-1.6,1.2-3.4,2.2-5.5,2.8c-2.2,0.7-4.6,1.2-7.2,1.5
			c-2.6,0.3-5.2,0.5-7.9,0.6c-5,0.1-10,0.2-15-0.2c-0.4,0-0.8-0.1-1.1-0.1c3.2-7.1,6.3-14.3,9.5-21.6c4.9-11.1,9.7-22.1,14.5-33
			c4.8-10.8,9.5-21.1,14.1-30.6l1-2.2h-2.4c-0.2,0-0.7,0-3.3,0.4c-1.8,0.2-3.9,0.5-6.2,0.7c-2.4,0.2-4.6,0.5-6.8,0.8
			c-2.1,0.3-3.6,0.5-4.4,0.6L147,30l-0.3,0.7c-3.3,7.1-7,13.7-11.1,19.6c-4,5.9-8.4,12.2-13.1,18.8c-3.3,4.6-7.4,9.9-12.2,15.7
			c-4.9,5.8-9.9,11.8-15,17.8l-2.2,2.6c-0.1,0-0.3-0.1-0.5-0.1c-0.6-0.2-1.2-0.4-1.8-0.6c-0.8-0.3-1.4-0.6-2-0.7
			c-0.7-0.2-1-0.3-1.2-0.3c-3.8-0.8-7.7-1.5-11.8-2.1c-4.1-0.6-8.3-1-12.4-1c-8.1,0-15.6,1.6-22.2,4.8c-6.7,3.2-12.5,8-17.5,14.4
			l-1,1.3l1.5,0.9c0.5,0.3,1.1,0.7,1.7,1.1c0.7,0.5,1.5,1,2.4,1.4l1,0.4l0.7-0.8c2.4-2.9,5.3-4.8,8.5-5.8c3.3-1,7.1-1.6,11.2-1.6
			c1.4,0,3.3,0.1,5.5,0.3c2.3,0.2,4.5,0.5,6.7,0.9c2.2,0.4,4.3,0.8,6.3,1.3c1.9,0.4,3.3,0.9,4.4,1.3c1,0.4,2.8,0.9,5.3,1.5
			c0.2,0.1,0.4,0.1,0.6,0.2c-4,4.5-7.6,8.6-10.6,12.2c-3.1,2.6-6,5.2-8.8,7.7c-2.7,2.5-5.6,4.6-8.4,6.5c-2.8,1.8-5.8,3.3-9,4.4
			c-3.1,1.1-6.6,1.6-10.4,1.6c-2,0-3.7-0.3-5.1-1c-1.4-0.7-2.6-1.6-3.5-2.7c-1-1.1-1.7-2.4-2.2-3.7c-0.5-1.4-0.9-2.7-1.1-4l-0.3-2.1
			l-3.6,1.9c-3,1.6-5.4,2.9-7.2,3.8c-2.1,1.1-3.6,1.9-4.5,2.4c-1.2,0.7-1.5,0.8-1.6,0.9c-0.4,0.2-0.8,0.4-1.2,0.7L0,151l0.2,1
			c0.2,1.3,0.5,2.6,0.9,3.8c0.4,1.4,1.1,2.8,2.1,4.1c2.6,3.9,5.6,6.6,9.1,8c3.4,1.4,7.2,2.1,11.2,2.1c6.2,0,12-1.3,17.4-3.9
			c5.3-2.6,10.4-5.7,15.3-9.3c2.1-1.5,4.3-3.3,6.5-5.3c2.2-1.9,4.3-3.9,6.2-5.8c2-1.9,3.7-3.6,5.2-5.1c1.4-1.4,2.5-2.5,3.2-3
			l0.2-0.1c3.4-3.8,7.3-8.3,11.6-13.3c2.7,0.5,5.5,1.1,8.4,1.6c2.5,0.5,4.9,0.9,7.2,1.3c-0.8,1.8-1.7,3.6-2.5,5.3
			c-2.7,5.6-5.1,10.7-7.3,15c-2.1,4.3-3.8,7.4-5.1,9.3l-1.5,2.3h2.8c1.4,0,3-0.1,4.9-0.2c1.9-0.1,3.8-0.3,5.7-0.5
			c1.9-0.2,3.7-0.5,5.5-0.7c1.8-0.2,3.3-0.5,4.5-0.7l0.7-0.1l0.3-0.7c1.9-3.9,3.9-8.1,6-12.4c2.2,1.8,4.5,3.4,6.9,4.8
			c4.2,2.4,8.7,4.5,13.3,6.1c4.7,1.6,9.5,2.7,14.3,3.4c4.8,0.7,9.6,1,14.2,1c10.7,0,20.8-2.2,29.8-6.6c9-4.4,17.2-10.7,24.3-18.7
			c3-3.4,5.7-7.3,7.9-11.5C231.5,118.1,232.6,113.5,232.6,108.6z M127.9,75.6c-0.3,0.7-0.7,1.5-1,2.3c-2.4,5.4-5,11.2-7.8,17.4
			c-2.2,4.9-4.5,9.9-6.8,15c-0.9-0.3-1.9-0.5-2.9-0.8c-2.3-0.6-4.5-1.2-6.6-1.8c1.3-1.6,2.6-3.2,3.9-4.8
			c5.1-6.4,10.2-12.8,15.2-19.2l0,0C123.9,80.9,126,78.2,127.9,75.6z"/>
	</g>
	<g>
		<path class="st0" d="M347,98.3L347,98.3c0.4,1.2,1,2.3,1.7,3.2c0.6,0.8,1.8,1.7,3.8,1.7h0.3l0.3-0.1c2.4-1,4.6-2.2,6.5-3.8
			c2-1.6,3.4-3.6,4-5.8c0.2-0.9,0.4-1.9,0.6-2.9c0.1-1,0.2-2.1,0.2-3.2c0-0.9,0-1.9-0.1-2.8c-0.1-0.9-0.2-1.6-0.3-2.3
			c-0.2-1.4-0.9-2.6-2-3.4c-1.9-1.3-4-1.6-6.4-0.2c-2.1,1.2-4.2,3-6.1,5.4c-2.1,2.5-3.2,5.2-3.2,7.9c0,0.7,0,1.7,0.1,2.7
			C346.4,95.9,346.6,97.1,347,98.3z"/>
	</g>
	<g>
		<path class="st0" d="M473.8,143.5c-1.3,0.4-2.6,0.6-3.9,0.6c-0.3,0-0.7,0-1.2-0.1c0.8-1,1.7-2.2,2.7-3.6c1.8-2.5,2.7-5.2,2.7-8.2
			c0-4.1-1.9-5.7-3.5-6.3c-0.8-0.3-1.7-0.5-2.6-0.7c0.5-0.1,1.1-0.3,2-0.5l3.1-0.7c1-0.2,1.9-0.4,2.7-0.6c1.2-0.3,1.6-0.4,1.9-0.6
			l1.6-0.8l-1-1.4c-1.3-1.7-2.7-3.2-4.4-4.3c-1.6-1.1-3.4-2-5.3-2.6c-1.8-0.6-3.7-1-5.5-1.3c-1.8-0.2-3.6-0.4-5.1-0.4
			c-4.4,0-8.8,0.7-13.3,2c-4.4,1.4-8.5,3.4-12.1,6c-3.6,2.6-6.7,5.9-9,9.7c-2.4,3.9-3.6,8.4-3.6,13.5c0,0,0,0.1,0,0.1
			c-1,0.5-2.1,1-3.4,1.6c-1.6,0.8-3.3,1.6-5.1,2.3c-1.7,0.7-3.4,1.3-5.1,1.8c-1.6,0.5-2.9,0.7-4,0.7c-2.3,0-4.1-0.6-5.4-1.7
			c-1.1-0.9-1.9-2.1-2.4-3.6c0.7-0.2,1.7-0.5,3.3-0.9c2.9-0.7,6.1-1.7,9.3-3c3.3-1.3,6.4-3.1,9.1-5.2c3-2.4,4.5-5.3,4.5-8.7
			c0-3.5-1.1-6.7-3.1-9.6c-2.2-3-5.2-4.5-9-4.5c-2.9,0-5.6,0.4-8.1,1.1c-2.4,0.7-4.8,1.6-7.1,2.8c-2.3,1.1-4.5,2.3-6.7,3.6
			c-1.3,0.7-2.5,1.4-3.8,2.1l13.7-30.8c4.1-9.3,7.6-17.1,10.3-23.3c2.8-6.2,4.9-11.2,6.5-14.8c1.6-3.6,2.8-6.4,3.7-8.4
			c0.9-2.1,1.5-3.5,1.9-4.3c0.4-0.8,0.8-1.6,1.1-2.3l1.3-2.6l-2.9,0.5c-1.3,0.2-2.8,0.4-4.3,0.6s-3.1,0.3-4.6,0.5
			c-1.5,0.2-2.9,0.3-4.2,0.5c-1.3,0.2-2.3,0.3-3,0.4l-0.9,0.1l-0.3,0.9c-0.1,0.4-0.6,1.6-2.4,5.7c-1.3,3.1-3.1,7.1-5.3,12.2
			c-2.2,4.9-4.6,10.5-7.4,16.7c-2.8,6.2-5.6,12.6-8.5,19.2l-8.8,19.8c-2.9,6.6-5.7,12.8-8.3,18.5c-1.7,3.8-3.3,7.4-4.8,10.6
			l-0.3,0.1c-1,0.4-2.1,0.9-3.4,1.5c-1.2,0.6-2.5,1.3-3.8,2c-1.3,0.6-2.7,1.2-4.1,1.6c-1.3,0.4-2.7,0.6-4,0.6c0,0,0,0,0,0
			c0-0.1,0-0.2,0-0.4c0-0.4,0-0.7,0.1-1.1c0.1-0.3,0.2-0.6,0.3-0.8l0.1-0.2c0.9-1.8,2.1-4.2,3.4-7.1l4.2-8.8c1.4-3,2.8-5.9,4-8.6
			c1.2-2.7,2.1-4.9,2.7-6.4l0.9-2.3l-2.5,0.3c-1,0.1-2.4,0.3-4.2,0.5c-1.6,0.2-3.4,0.4-5.1,0.6c-1.7,0.2-3.4,0.4-4.9,0.6
			c-1.5,0.2-2.6,0.4-3.2,0.5l-0.8,0.2l-0.3,0.8c-0.3,0.9-0.8,1.9-1.3,3.2c-0.6,1.3-1.4,3-2.4,5.2c-1,2.2-2.4,5.1-4,8.7
			c-1.4,3.1-3.1,7-5.3,12.1c-1.3,0.5-2.7,1.1-4,1.6c-3.2,1.3-6.2,2-8.9,2c-1.4,0-1.4-0.4-1.4-0.6v-0.7c0.2-0.9,0.5-1.8,0.8-2.6
			c0.4-1,0.7-1.9,1-2.7c1.3-2.9,3-6.5,5-11c1.9-4.4,4-9.1,6.3-14.1c2.2-5,4.5-10,6.8-15.1c2.3-5.1,4.4-9.9,6.4-14.3
			c2-4.4,3.8-8.3,5.3-11.6c1.5-3.3,2.6-5.7,3.3-7.2l1-2.1h-2.3c-1,0-2.2,0.1-3.9,0.3c-1.6,0.2-3.2,0.3-4.8,0.4
			c-1.7,0.1-3.2,0.2-4.7,0.3c-1.4,0.1-2.5,0.2-3.2,0.2H324l-0.4,0.8c-0.7,1.3-1.8,3.6-3.2,6.8c-1.5,3.3-3.2,7.1-5.2,11.3
			c-2,4.3-4.2,9.2-6.5,14.4c-2.3,5.2-4.6,10.4-6.9,15.6c-2.3,5.2-4.5,10.1-6.7,15c-2,4.4-3.8,8.4-5.3,11.8c-0.3,0.2-0.6,0.3-1,0.5
			c-1.3,0.7-2.7,1.3-4.2,1.9c-1.5,0.6-3,1.2-4.5,1.7c-1.7,0.6-2.6,0.7-3.1,0.7c-0.7,0-0.7-0.1-0.7-0.6c0-0.2,0.1-0.9,1-3.3
			c0.7-1.9,1.6-4,2.7-6.4c1-2.3,2.2-4.8,3.4-7.3c1.2-2.5,2.3-4.6,3.2-6.2l1.4-2.7l-3,0.5c-0.3,0.1-0.6,0.1-1,0.2
			c0.5-0.1,0.8-0.2,1.2-0.4l1.7-0.6l-0.9-1.6c-1.7-3-4.6-5-8.5-5.9c-3.7-0.8-7.4-1.2-11-1.2c-4.9,0-9.8,0.6-14.5,1.7
			c-4.8,1.1-9.1,3.4-12.9,6.8c-3.7,3.5-6.9,7.1-9.3,10.7c-2.6,3.8-3.9,8.6-3.9,14.3c0,4.2,1,7.4,3,9.5c2,2.2,5.3,3.3,9.7,3.3
			c2.7,0,5.2-0.5,7.4-1.4c2.1-0.9,4.1-2,5.9-3.4c1.8-1.3,3.5-2.7,5-4.2c0.6-0.5,1.2-1.1,1.7-1.5c-0.1,0.6-0.2,1.2-0.2,1.9
			c0,2.8,0.8,5,2.4,6.4c1.5,1.4,3.6,2.1,6,2.1c2,0,4.3-0.4,7-1.2c2.6-0.8,5.1-1.7,7.6-2.7c2.2-0.9,4.3-2,6.2-3l0,0.1
			c0.3,2.3,1.4,4.1,3.4,5.2c1.8,1.1,3.7,1.6,5.7,1.6c1,0,1.7-0.1,2.2-0.2c7.6-1.2,15.1-3.2,22.2-5.9c0.4,2,1.6,3.5,3.5,4.5
			c2.1,1.1,4.3,1.6,6.4,1.6c1.3,0,2.5-0.2,3.7-0.5c1-0.3,2-0.5,2.9-0.8l0.1,0c2.9-0.9,6.4-2.4,10.3-4.4c1.3-0.7,2.7-1.3,4-2l-3.6,8
			l2.7-0.4c0.8-0.1,1.9-0.3,3.3-0.4c1.4-0.2,3-0.4,4.5-0.6c1.5-0.2,3.1-0.5,4.6-0.7c1.6-0.2,2.8-0.5,3.7-0.7l0.7-0.2l6.4-14.8
			l0.1,0.2c0.8,3,1.6,5.6,2.5,7.7c0.9,2.2,2,4.1,3.4,5.6c1.4,1.5,3.3,2.6,5.6,3.2c2.1,0.6,5,0.9,8.4,0.9c2.6,0,5.6-0.4,8.8-1.3
			c3.2-0.8,6.2-1.8,9.1-3c2.9-1.2,5.5-2.3,7.6-3.5c0.7-0.4,1.4-0.8,2-1.1c0.1,0.1,0.1,0.2,0.2,0.3c1.2,2,2.8,3.6,4.7,4.9
			c1.9,1.2,4,2.2,6.2,2.7c2.2,0.5,4.5,0.8,6.8,0.8c4.4,0,8.3-0.7,11.4-2.1c2.8-1.3,5.9-3,9.1-5.2c0.4,0.1,0.7,0.1,1,0.2
			c0.5,0.1,1.1,0.1,1.7,0.1c1.6,0,3.2-0.2,4.9-0.5c1.6-0.3,3.2-0.6,4.6-1c1.5-0.4,2.8-0.8,4-1.2c1.3-0.5,2-0.8,2.5-1.1l0.5-0.3
			l0.1-0.6c0.1-0.6,0.2-1.2,0.3-1.9c0.1-0.6,0.1-1.3,0.1-1.9v-2.1l-2,0.7C476.5,142.6,475.1,143.1,473.8,143.5z M260.6,122.6
			c2.2-1.4,4.2-2.2,5.8-2.2c1.1,0,1.4,0.4,1.6,0.9c0.5,1.1,0.9,2.1,1.1,2.7l0.4,1.1l-0.3,0.1l-0.8,1.6c-1,1.8-2.3,3.8-3.7,6
			c-1.4,2.2-3.1,4.2-4.8,6.1c-1.7,1.9-3.6,3.4-5.5,4.7c-1.8,1.2-3.5,1.7-5.3,1.7c-1.6,0-1.9-0.5-2-0.7c-0.4-0.7-0.7-1.5-0.7-2.2
			c0-1.9,0.7-4.1,2.1-6.7c1.5-2.6,3.3-5.1,5.4-7.4C256,126.1,258.2,124.2,260.6,122.6z M459.3,126.3c-1.5,0.9-2.8,2-3.8,3.3
			c-1.1,1.3-1.9,2.8-2.6,4.4c-0.6,1.7-1,3.3-1,4.8c0,2.4,0.2,4.2,0.7,5.4c0.3,0.8,0.6,1.6,1,2.4c-0.9,0.8-2,1.4-3.5,1.7
			c-2.5,0.7-3.7,0.8-4.3,0.8c-1.1,0-2-0.2-2.5-0.5l-0.2-0.1c-1.1-0.4-1.8-1.1-2.1-2.2c-0.5-1.3-0.7-2.5-0.7-3.6c0-2.5,0.6-5.2,1.7-8
			c1.1-2.8,2.7-5.4,4.7-7.8c2-2.3,4.2-4.3,6.7-5.8c2.4-1.5,4.8-2.2,7.3-2.2c1.5,0,2.6,0.3,3.2,0.9c0.5,0.5,1.3,1.6,2,4.2l0.2,0.7
			c-0.7-0.1-1.3-0.1-2.1-0.1C462.5,124.9,460.9,125.3,459.3,126.3z M463.9,140c0-0.6,0.1-1.3,0.3-2c0.2-0.8,0.5-1.6,0.9-2.3
			c0.4-0.7,0.8-1.3,1.3-1.7c0.3-0.3,0.7-0.5,1.3-0.5c0,0.1,0.1,0.3,0.1,0.6c0,1.3-0.6,2.7-1.8,4.2c-0.7,0.9-1.4,1.7-2,2.4
			C464,140.2,463.9,140,463.9,140z M374.9,140.1l0.5-1.3c1.7-3.7,4.1-6.5,7.1-8.3c3.2-1.9,6.9-3.7,10.8-5.2c0.6-0.3,1.3-0.4,2-0.4
			c1.4,0,2.6,0.4,3.7,1.3c1,0.8,1.5,1.9,1.5,3.4c0,2.5-0.9,4.4-2.7,5.9c-1.6,1.3-3.2,2.3-4.9,3.1l-1.9-5.5l-1.5,0.6
			c-3,1.2-5.4,2.2-7.3,2.9c-1.8,0.7-3.2,1.3-4.2,1.8c-0.9,0.4-1.5,0.7-1.9,0.9C375.8,139.5,375.4,139.8,374.9,140.1L374.9,140.1z"/>
	</g>
	<g>
		<path class="st0" d="M524.1,115.8c-0.5-1.6-1.8-3.5-5.6-3.5c-1.1,0-2.4,0.5-3.8,1.5c-1.2,0.8-2.4,1.9-3.6,3
			c-1.1,1.1-2.2,2.3-3.1,3.5c-1,1.4-1.6,2.5-1.7,3.4l0,1.1c0,1.9,0.5,3.7,1.6,5.4c0.9,1.5,1.9,2.8,2.8,4l0.1,0.1
			c0.3,0.3,0.4,0.6,0.4,0.9l-0.1,1.4c-0.1,0.1-0.1,0.2-0.3,0.3c-0.3,0.4-0.7,1-1.2,1.6c-0.5,0.6-1,1.2-1.5,1.8c-0.5,0.6-1,1-1.4,1.5
			c-0.6,0.6-1.2,1.2-2.1,1.9c-0.8,0.7-1.7,1.4-2.7,2.2c-1,0.7-1.9,1.3-2.9,1.9c-0.3,0.2-0.5,0.3-0.8,0.4c0.4-3.3,0.8-6.5,1.1-9.5
			c0.3-3.7,0.5-7.5,0.5-11.3c0-2.4-0.2-4.7-0.6-7c-0.4-2.3-1.1-4.5-2.1-6.7l-0.6-1.2l-1.3,0.4c-0.6,0.2-1.5,0.5-2.8,0.8
			c-1.2,0.3-2.6,0.8-4,1.2c-1.4,0.5-2.8,0.9-4.1,1.3c-1.3,0.4-2.4,0.7-3.2,0.9l-1.6,0.5l0.6,1.5c1,2.5,1.6,5.1,2,7.6
			c0.3,2.6,0.5,5.2,0.5,7.9c0,3.7-0.3,7.5-0.8,11.4c-0.5,4-1,7.7-1.5,11.3l-0.2,1.9l15.6-1.6l0.3-0.1c3.1-1.7,6.4-3.8,9.7-6.1
			c3.3-2.3,6.4-5,9.3-8c2.8-3,5.2-6.4,7-10c1.8-3.7,2.7-7.7,2.7-11.9C524.8,119.4,524.6,117.5,524.1,115.8z"/>
	</g>
	<g>
		<path class="st0" d="M589.1,142.3c-0.6,0.3-1.5,0.8-2.8,1.5c-1.3,0.7-2.7,1.3-4.2,1.9c-1.5,0.6-3,1.2-4.5,1.7
			c-1.7,0.6-2.6,0.7-3.1,0.7c-0.7,0-0.7-0.1-0.7-0.6c0-0.2,0.1-0.9,1-3.3c0.7-1.9,1.6-4,2.7-6.4c1.1-2.3,2.2-4.8,3.4-7.3
			c1.2-2.5,2.3-4.6,3.2-6.2l1.4-2.7l-3,0.5c-0.3,0.1-0.6,0.1-1,0.2c0.5-0.1,0.8-0.2,1.2-0.4l1.7-0.6l-0.9-1.6c-1.7-3-4.6-5-8.5-5.9
			c-3.7-0.8-7.4-1.2-11-1.2c-4.9,0-9.8,0.6-14.5,1.7c-4.8,1.1-9.1,3.4-12.9,6.8c-3.7,3.5-6.9,7.1-9.3,10.7
			c-2.6,3.8-3.9,8.6-3.9,14.3c0,4.2,1,7.4,3,9.5c2,2.2,5.3,3.3,9.7,3.3c2.7,0,5.2-0.5,7.4-1.4c2.1-0.9,4.1-2,5.9-3.4
			c1.8-1.3,3.5-2.7,5-4.2c0.6-0.5,1.2-1.1,1.7-1.5c-0.1,0.6-0.2,1.2-0.2,1.9c0,2.8,0.8,5,2.4,6.4c1.5,1.4,3.6,2.1,6,2.1
			c2,0,4.3-0.4,7-1.2c2.6-0.8,5.1-1.7,7.6-2.7c2.4-1.1,4.7-2.2,6.8-3.3c2.1-1.2,3.6-2.2,4.6-3.1l0.4-0.3l0.1-0.5
			c0.4-1.6,0.4-1.9,0.4-2.1c0,0,0-0.3,0.2-2l0.3-2.9L589.1,142.3z M558.1,122.6c2.2-1.4,4.2-2.2,5.8-2.2c1.1,0,1.4,0.4,1.6,0.9
			c0.5,1.1,0.8,2.1,1.1,2.7l0.4,1.1l-0.3,0.1l-0.8,1.6c-1,1.8-2.2,3.8-3.7,6c-1.4,2.2-3.1,4.2-4.8,6.1c-1.7,1.9-3.6,3.4-5.5,4.7
			c-1.8,1.2-3.5,1.7-5.3,1.7c-1.6,0-1.9-0.5-2-0.7c-0.4-0.7-0.7-1.5-0.7-2.2c0-1.9,0.7-4.1,2.1-6.7c1.5-2.6,3.3-5.1,5.4-7.4
			C553.5,126.1,555.8,124.2,558.1,122.6z"/>
	</g>
</g>
<defs>
	<filter id="Adobe_OpacityMaskFilter" filterUnits="userSpaceOnUse" x="21.8" y="49.1" width="573" height="110.1">
		<feColorMatrix  type="matrix" values="1 0 0 0 0  0 1 0 0 0  0 0 1 0 0  0 0 0 1 0"/>
	</filter>
</defs>
<mask maskUnits="userSpaceOnUse" x="21.8" y="49.1" width="573" height="110.1" id="SVGID_1_">
	<g class="st1">
		<g>
			<g>
				<path class="st2" d="M232.6,108.6c0-6.2-1.5-11.6-4.6-16c-3-4.2-6.7-8-11-11c-4.3-3-9.1-5.7-14.2-7.8c-5-2.1-9.7-4.2-13.9-6.2
					c-4.1-1.9-7.6-4.1-10.4-6.3c-2.5-2-3.7-4.3-3.7-7.1c0-2.9,0.8-5,2.5-6.5c1.8-1.6,4.1-2.9,6.7-3.6c2.7-0.8,5.6-1.3,8.7-1.5
					c3.2-0.2,6-0.3,8.3-0.3c3.9,0,7.7,0.3,11.2,0.9c3.6,0.6,7.4,1.4,11.3,2.3l3.1,0.8l0.6-1c0.4-0.6,0.9-1.7,1.7-3.3
					c0.7-1.5,1.5-3.2,2.4-4.9c0.9-1.7,1.7-3.4,2.6-5.1c0.9-1.7,1.5-3,1.9-4l0.6-1.6l-1.7-0.4c-3-0.7-6-1.2-8.8-1.4
					c-2.8-0.2-5.7-0.3-8.7-0.3c-3.6,0-7.6,0.4-11.9,1.1c-4.3,0.8-8.6,1.9-13,3.5c-4.4,1.6-8.6,3.5-12.7,5.8c-4.1,2.3-7.8,5-11,8.1
					c-3.2,3.1-5.8,6.5-7.8,10.3c-2,3.8-3,8.1-3,12.6c0,5,1.6,9.1,4.7,12.4c3,3.1,6.7,5.9,11,8.3c4.3,2.4,9,4.6,14.1,6.6
					c4.9,2,9.6,4.2,13.7,6.8c4.1,2.5,7.5,5.4,10.3,8.8c2.6,3.2,4,7.3,4,12.2c0,3.6-1,6.7-2.9,9.4c-2,2.7-4.6,5.1-7.6,6.9
					c-3.1,1.9-6.6,3.3-10.2,4.2c-3.6,0.9-7.1,1.4-10.3,1.4c-10.5,0-20.3-1.7-29.1-5.1c-5.3-2.1-10.6-4.8-15.8-8.1
					c3.6-0.5,7.1-1.3,10.4-2.2c7-2,13.8-5.6,20.1-10.7l0.6-0.5v-8l-2.4,1.9c-1.6,1.2-3.4,2.2-5.5,2.8c-2.2,0.7-4.6,1.2-7.2,1.5
					c-2.6,0.3-5.2,0.5-7.9,0.6c-5,0.1-10,0.2-15-0.2c-0.4,0-0.8-0.1-1.1-0.1c3.2-7.1,6.3-14.3,9.5-21.6c4.9-11.1,9.7-22.1,14.5-33
					c4.8-10.8,9.5-21.1,14.1-30.6l1-2.2h-2.4c-0.2,0-0.7,0-3.3,0.4c-1.8,0.2-3.9,0.5-6.2,0.7c-2.4,0.2-4.6,0.5-6.8,0.8
					c-2.1,0.3-3.6,0.5-4.4,0.6L147,30l-0.3,0.7c-3.3,7.1-7,13.7-11.1,19.6c-4,5.9-8.4,12.2-13.1,18.8c-3.3,4.6-7.4,9.9-12.2,15.7
					c-4.9,5.8-9.9,11.8-15,17.8l-2.2,2.6c-0.1,0-0.3-0.1-0.5-0.1c-0.6-0.2-1.2-0.4-1.8-0.6c-0.8-0.3-1.4-0.6-2-0.7
					c-0.7-0.2-1-0.3-1.2-0.3c-3.8-0.8-7.7-1.5-11.8-2.1c-4.1-0.6-8.3-1-12.4-1c-8.1,0-15.6,1.6-22.2,4.8c-6.7,3.2-12.5,8-17.5,14.4
					l-1,1.3l1.5,0.9c0.5,0.3,1.1,0.7,1.7,1.1c0.7,0.5,1.5,1,2.4,1.4l1,0.4l0.7-0.8c2.4-2.9,5.3-4.8,8.5-5.8c3.3-1,7.1-1.6,11.2-1.6
					c1.4,0,3.3,0.1,5.5,0.3c2.3,0.2,4.5,0.5,6.7,0.9c2.2,0.4,4.3,0.8,6.3,1.3c1.9,0.4,3.3,0.9,4.4,1.3c1,0.4,2.8,0.9,5.3,1.5
					c0.2,0.1,0.4,0.1,0.6,0.2c-4,4.5-7.6,8.6-10.6,12.2c-3.1,2.6-6,5.2-8.8,7.7c-2.7,2.5-5.6,4.6-8.4,6.5c-2.8,1.8-5.8,3.3-9,4.4
					c-3.1,1.1-6.6,1.6-10.4,1.6c-2,0-3.7-0.3-5.1-1c-1.4-0.7-2.6-1.6-3.5-2.7c-1-1.1-1.7-2.4-2.2-3.7c-0.5-1.4-0.9-2.7-1.1-4
					l-0.3-2.1l-3.6,1.9c-3,1.6-5.4,2.9-7.2,3.8c-2.1,1.1-3.6,1.9-4.5,2.4c-1.2,0.7-1.5,0.8-1.6,0.9c-0.4,0.2-0.8,0.4-1.2,0.7L0,151
					l0.2,1c0.2,1.3,0.5,2.6,0.9,3.8c0.4,1.4,1.1,2.8,2.1,4.1c2.6,3.9,5.6,6.6,9.1,8c3.4,1.4,7.2,2.1,11.2,2.1c6.2,0,12-1.3,17.4-3.9
					c5.3-2.6,10.4-5.7,15.3-9.3c2.1-1.5,4.3-3.3,6.5-5.3c2.2-1.9,4.3-3.9,6.2-5.8c2-1.9,3.7-3.6,5.2-5.1c1.4-1.4,2.5-2.5,3.2-3
					l0.2-0.1c3.4-3.8,7.3-8.3,11.6-13.3c2.7,0.5,5.5,1.1,8.4,1.6c2.5,0.5,4.9,0.9,7.2,1.3c-0.8,1.8-1.7,3.6-2.5,5.3
					c-2.7,5.6-5.1,10.7-7.3,15c-2.1,4.3-3.8,7.4-5.1,9.3l-1.5,2.3h2.8c1.4,0,3-0.1,4.9-0.2c1.9-0.1,3.8-0.3,5.7-0.5
					c1.9-0.2,3.7-0.5,5.5-0.7c1.8-0.2,3.3-0.5,4.5-0.7l0.7-0.1l0.3-0.7c1.9-3.9,3.9-8.1,6-12.4c2.2,1.8,4.5,3.4,6.9,4.8
					c4.2,2.4,8.7,4.5,13.3,6.1c4.7,1.6,9.5,2.7,14.3,3.4c4.8,0.7,9.6,1,14.2,1c10.7,0,20.8-2.2,29.8-6.6c9-4.4,17.2-10.7,24.3-18.7
					c3-3.4,5.7-7.3,7.9-11.5C231.5,118.1,232.6,113.5,232.6,108.6z M127.9,75.6c-0.3,0.7-0.7,1.5-1,2.3c-2.4,5.4-5,11.2-7.8,17.4
					c-2.2,4.9-4.5,9.9-6.8,15c-0.9-0.3-1.9-0.5-2.9-0.8c-2.3-0.6-4.5-1.2-6.6-1.8c1.3-1.6,2.6-3.2,3.9-4.8
					c5.1-6.4,10.2-12.8,15.2-19.2l0,0C123.9,80.9,126,78.2,127.9,75.6z"/>
			</g>
			<g>
				<path class="st2" d="M347,98.3L347,98.3c0.4,1.2,1,2.3,1.7,3.2c0.6,0.8,1.8,1.7,3.8,1.7h0.3l0.3-0.1c2.4-1,4.6-2.2,6.5-3.8
					c2-1.6,3.4-3.6,4-5.8c0.2-0.9,0.4-1.9,0.6-2.9c0.1-1,0.2-2.1,0.2-3.2c0-0.9,0-1.9-0.1-2.8c-0.1-0.9-0.2-1.6-0.3-2.3
					c-0.2-1.4-0.9-2.6-2-3.4c-1.9-1.3-4-1.6-6.4-0.2c-2.1,1.2-4.2,3-6.1,5.4c-2.1,2.5-3.2,5.2-3.2,7.9c0,0.7,0,1.7,0.1,2.7
					C346.4,95.9,346.6,97.1,347,98.3z"/>
			</g>
			<g>
				<path class="st2" d="M473.8,143.5c-1.3,0.4-2.6,0.6-3.9,0.6c-0.3,0-0.7,0-1.2-0.1c0.8-1,1.7-2.2,2.7-3.6
					c1.8-2.5,2.7-5.2,2.7-8.2c0-4.1-1.9-5.7-3.5-6.3c-0.8-0.3-1.7-0.5-2.6-0.7c0.5-0.1,1.1-0.3,2-0.5l3.1-0.7c1-0.2,1.9-0.4,2.7-0.6
					c1.2-0.3,1.6-0.4,1.9-0.6l1.6-0.8l-1-1.4c-1.3-1.7-2.7-3.2-4.4-4.3c-1.6-1.1-3.4-2-5.3-2.6c-1.8-0.6-3.7-1-5.5-1.3
					c-1.8-0.2-3.6-0.4-5.1-0.4c-4.4,0-8.8,0.7-13.3,2c-4.4,1.4-8.5,3.4-12.1,6c-3.6,2.6-6.7,5.9-9,9.7c-2.4,3.9-3.6,8.4-3.6,13.5
					c0,0,0,0.1,0,0.1c-1,0.5-2.1,1-3.4,1.6c-1.6,0.8-3.3,1.6-5.1,2.3c-1.7,0.7-3.4,1.3-5.1,1.8c-1.6,0.5-2.9,0.7-4,0.7
					c-2.3,0-4.1-0.6-5.4-1.7c-1.1-0.9-1.9-2.1-2.4-3.6c0.7-0.2,1.7-0.5,3.3-0.9c2.9-0.7,6.1-1.7,9.3-3c3.3-1.3,6.4-3.1,9.1-5.2
					c3-2.4,4.5-5.3,4.5-8.7c0-3.5-1.1-6.7-3.1-9.6c-2.2-3-5.2-4.5-9-4.5c-2.9,0-5.6,0.4-8.1,1.1c-2.4,0.7-4.8,1.6-7.1,2.8
					c-2.3,1.1-4.5,2.3-6.7,3.6c-1.3,0.7-2.5,1.4-3.8,2.1l13.7-30.8c4.1-9.3,7.6-17.1,10.3-23.3c2.8-6.2,4.9-11.2,6.5-14.8
					c1.6-3.6,2.8-6.4,3.7-8.4c0.9-2.1,1.5-3.5,1.9-4.3c0.4-0.8,0.8-1.6,1.1-2.3l1.3-2.6l-2.9,0.5c-1.3,0.2-2.8,0.4-4.3,0.6
					s-3.1,0.3-4.6,0.5c-1.5,0.2-2.9,0.3-4.2,0.5c-1.3,0.2-2.3,0.3-3,0.4l-0.9,0.1l-0.3,0.9c-0.1,0.4-0.6,1.6-2.4,5.7
					c-1.3,3.1-3.1,7.1-5.3,12.2c-2.2,4.9-4.6,10.5-7.4,16.7c-2.8,6.2-5.6,12.6-8.5,19.2l-8.8,19.8c-2.9,6.6-5.7,12.8-8.3,18.5
					c-1.7,3.8-3.3,7.4-4.8,10.6l-0.3,0.1c-1,0.4-2.1,0.9-3.4,1.5c-1.2,0.6-2.5,1.3-3.8,2c-1.3,0.6-2.7,1.2-4.1,1.6
					c-1.3,0.4-2.7,0.6-4,0.6c0,0,0,0,0,0c0-0.1,0-0.2,0-0.4c0-0.4,0-0.7,0.1-1.1c0.1-0.3,0.2-0.6,0.3-0.8l0.1-0.2
					c0.9-1.8,2.1-4.2,3.4-7.1l4.2-8.8c1.4-3,2.8-5.9,4-8.6c1.2-2.7,2.1-4.9,2.7-6.4l0.9-2.3l-2.5,0.3c-1,0.1-2.4,0.3-4.2,0.5
					c-1.6,0.2-3.4,0.4-5.1,0.6c-1.7,0.2-3.4,0.4-4.9,0.6c-1.5,0.2-2.6,0.4-3.2,0.5l-0.8,0.2l-0.3,0.8c-0.3,0.9-0.8,1.9-1.3,3.2
					c-0.6,1.3-1.4,3-2.4,5.2c-1,2.2-2.4,5.1-4,8.7c-1.4,3.1-3.1,7-5.3,12.1c-1.3,0.5-2.7,1.1-4,1.6c-3.2,1.3-6.2,2-8.9,2
					c-1.4,0-1.4-0.4-1.4-0.6v-0.7c0.2-0.9,0.5-1.8,0.8-2.6c0.4-1,0.7-1.9,1-2.7c1.3-2.9,3-6.5,5-11c1.9-4.4,4-9.1,6.3-14.1
					c2.2-5,4.5-10,6.8-15.1c2.3-5.1,4.4-9.9,6.4-14.3c2-4.4,3.8-8.3,5.3-11.6c1.5-3.3,2.6-5.7,3.3-7.2l1-2.1h-2.3
					c-1,0-2.2,0.1-3.9,0.3c-1.6,0.2-3.2,0.3-4.8,0.4c-1.7,0.1-3.2,0.2-4.7,0.3c-1.4,0.1-2.5,0.2-3.2,0.2H324l-0.4,0.8
					c-0.7,1.3-1.8,3.6-3.2,6.8c-1.5,3.3-3.2,7.1-5.2,11.3c-2,4.3-4.2,9.2-6.5,14.4c-2.3,5.2-4.6,10.4-6.9,15.6
					c-2.3,5.2-4.5,10.1-6.7,15c-2,4.4-3.8,8.4-5.3,11.8c-0.3,0.2-0.6,0.3-1,0.5c-1.3,0.7-2.7,1.3-4.2,1.9c-1.5,0.6-3,1.2-4.5,1.7
					c-1.7,0.6-2.6,0.7-3.1,0.7c-0.7,0-0.7-0.1-0.7-0.6c0-0.2,0.1-0.9,1-3.3c0.7-1.9,1.6-4,2.7-6.4c1-2.3,2.2-4.8,3.4-7.3
					c1.2-2.5,2.3-4.6,3.2-6.2l1.4-2.7l-3,0.5c-0.3,0.1-0.6,0.1-1,0.2c0.5-0.1,0.8-0.2,1.2-0.4l1.7-0.6l-0.9-1.6
					c-1.7-3-4.6-5-8.5-5.9c-3.7-0.8-7.4-1.2-11-1.2c-4.9,0-9.8,0.6-14.5,1.7c-4.8,1.1-9.1,3.4-12.9,6.8c-3.7,3.5-6.9,7.1-9.3,10.7
					c-2.6,3.8-3.9,8.6-3.9,14.3c0,4.2,1,7.4,3,9.5c2,2.2,5.3,3.3,9.7,3.3c2.7,0,5.2-0.5,7.4-1.4c2.1-0.9,4.1-2,5.9-3.4
					c1.8-1.3,3.5-2.7,5-4.2c0.6-0.5,1.2-1.1,1.7-1.5c-0.1,0.6-0.2,1.2-0.2,1.9c0,2.8,0.8,5,2.4,6.4c1.5,1.4,3.6,2.1,6,2.1
					c2,0,4.3-0.4,7-1.2c2.6-0.8,5.1-1.7,7.6-2.7c2.2-0.9,4.3-2,6.2-3l0,0.1c0.3,2.3,1.4,4.1,3.4,5.2c1.8,1.1,3.7,1.6,5.7,1.6
					c1,0,1.7-0.1,2.2-0.2c7.6-1.2,15.1-3.2,22.2-5.9c0.4,2,1.6,3.5,3.5,4.5c2.1,1.1,4.3,1.6,6.4,1.6c1.3,0,2.5-0.2,3.7-0.5
					c1-0.3,2-0.5,2.9-0.8l0.1,0c2.9-0.9,6.4-2.4,10.3-4.4c1.3-0.7,2.7-1.3,4-2l-3.6,8l2.7-0.4c0.8-0.1,1.9-0.3,3.3-0.4
					c1.4-0.2,3-0.4,4.5-0.6c1.5-0.2,3.1-0.5,4.6-0.7c1.6-0.2,2.8-0.5,3.7-0.7l0.7-0.2l6.4-14.8l0.1,0.2c0.8,3,1.6,5.6,2.5,7.7
					c0.9,2.2,2,4.1,3.4,5.6c1.4,1.5,3.3,2.6,5.6,3.2c2.1,0.6,5,0.9,8.4,0.9c2.6,0,5.6-0.4,8.8-1.3c3.2-0.8,6.2-1.8,9.1-3
					c2.9-1.2,5.5-2.3,7.6-3.5c0.7-0.4,1.4-0.8,2-1.1c0.1,0.1,0.1,0.2,0.2,0.3c1.2,2,2.8,3.6,4.7,4.9c1.9,1.2,4,2.2,6.2,2.7
					c2.2,0.5,4.5,0.8,6.8,0.8c4.4,0,8.3-0.7,11.4-2.1c2.8-1.3,5.9-3,9.1-5.2c0.4,0.1,0.7,0.1,1,0.2c0.5,0.1,1.1,0.1,1.7,0.1
					c1.6,0,3.2-0.2,4.9-0.5c1.6-0.3,3.2-0.6,4.6-1c1.5-0.4,2.8-0.8,4-1.2c1.3-0.5,2-0.8,2.5-1.1l0.5-0.3l0.1-0.6
					c0.1-0.6,0.2-1.2,0.3-1.9c0.1-0.6,0.1-1.3,0.1-1.9v-2.1l-2,0.7C476.5,142.6,475.1,143.1,473.8,143.5z M260.6,122.6
					c2.2-1.4,4.2-2.2,5.8-2.2c1.1,0,1.4,0.4,1.6,0.9c0.5,1.1,0.9,2.1,1.1,2.7l0.4,1.1l-0.3,0.1l-0.8,1.6c-1,1.8-2.3,3.8-3.7,6
					c-1.4,2.2-3.1,4.2-4.8,6.1c-1.7,1.9-3.6,3.4-5.5,4.7c-1.8,1.2-3.5,1.7-5.3,1.7c-1.6,0-1.9-0.5-2-0.7c-0.4-0.7-0.7-1.5-0.7-2.2
					c0-1.9,0.7-4.1,2.1-6.7c1.5-2.6,3.3-5.1,5.4-7.4C256,126.1,258.2,124.2,260.6,122.6z M459.3,126.3c-1.5,0.9-2.8,2-3.8,3.3
					c-1.1,1.3-1.9,2.8-2.6,4.4c-0.6,1.7-1,3.3-1,4.8c0,2.4,0.2,4.2,0.7,5.4c0.3,0.8,0.6,1.6,1,2.4c-0.9,0.8-2,1.4-3.5,1.7
					c-2.5,0.7-3.7,0.8-4.3,0.8c-1.1,0-2-0.2-2.5-0.5l-0.2-0.1c-1.1-0.4-1.8-1.1-2.1-2.2c-0.5-1.3-0.7-2.5-0.7-3.6
					c0-2.5,0.6-5.2,1.7-8c1.1-2.8,2.7-5.4,4.7-7.8c2-2.3,4.2-4.3,6.7-5.8c2.4-1.5,4.8-2.2,7.3-2.2c1.5,0,2.6,0.3,3.2,0.9
					c0.5,0.5,1.3,1.6,2,4.2l0.2,0.7c-0.7-0.1-1.3-0.1-2.1-0.1C462.5,124.9,460.9,125.3,459.3,126.3z M463.9,140c0-0.6,0.1-1.3,0.3-2
					c0.2-0.8,0.5-1.6,0.9-2.3c0.4-0.7,0.8-1.3,1.3-1.7c0.3-0.3,0.7-0.5,1.3-0.5c0,0.1,0.1,0.3,0.1,0.6c0,1.3-0.6,2.7-1.8,4.2
					c-0.7,0.9-1.4,1.7-2,2.4C464,140.2,463.9,140,463.9,140z M374.9,140.1l0.5-1.3c1.7-3.7,4.1-6.5,7.1-8.3
					c3.2-1.9,6.9-3.7,10.8-5.2c0.6-0.3,1.3-0.4,2-0.4c1.4,0,2.6,0.4,3.7,1.3c1,0.8,1.5,1.9,1.5,3.4c0,2.5-0.9,4.4-2.7,5.9
					c-1.6,1.3-3.2,2.3-4.9,3.1l-1.9-5.5l-1.5,0.6c-3,1.2-5.4,2.2-7.3,2.9c-1.8,0.7-3.2,1.3-4.2,1.8c-0.9,0.4-1.5,0.7-1.9,0.9
					C375.8,139.5,375.4,139.8,374.9,140.1L374.9,140.1z"/>
			</g>
			<g>
				<path class="st2" d="M524.1,115.8c-0.5-1.6-1.8-3.5-5.6-3.5c-1.1,0-2.4,0.5-3.8,1.5c-1.2,0.8-2.4,1.9-3.6,3
					c-1.1,1.1-2.2,2.3-3.1,3.5c-1,1.4-1.6,2.5-1.7,3.4l0,1.1c0,1.9,0.5,3.7,1.6,5.4c0.9,1.5,1.9,2.8,2.8,4l0.1,0.1
					c0.3,0.3,0.4,0.6,0.4,0.9l-0.1,1.4c-0.1,0.1-0.1,0.2-0.3,0.3c-0.3,0.4-0.7,1-1.2,1.6c-0.5,0.6-1,1.2-1.5,1.8
					c-0.5,0.6-1,1-1.4,1.5c-0.6,0.6-1.2,1.2-2.1,1.9c-0.8,0.7-1.7,1.4-2.7,2.2c-1,0.7-1.9,1.3-2.9,1.9c-0.3,0.2-0.5,0.3-0.8,0.4
					c0.4-3.3,0.8-6.5,1.1-9.5c0.3-3.7,0.5-7.5,0.5-11.3c0-2.4-0.2-4.7-0.6-7c-0.4-2.3-1.1-4.5-2.1-6.7l-0.6-1.2l-1.3,0.4
					c-0.6,0.2-1.5,0.5-2.8,0.8c-1.2,0.3-2.6,0.8-4,1.2c-1.4,0.5-2.8,0.9-4.1,1.3c-1.3,0.4-2.4,0.7-3.2,0.9l-1.6,0.5l0.6,1.5
					c1,2.5,1.6,5.1,2,7.6c0.3,2.6,0.5,5.2,0.5,7.9c0,3.7-0.3,7.5-0.8,11.4c-0.5,4-1,7.7-1.5,11.3l-0.2,1.9l15.6-1.6l0.3-0.1
					c3.1-1.7,6.4-3.8,9.7-6.1c3.3-2.3,6.4-5,9.3-8c2.8-3,5.2-6.4,7-10c1.8-3.7,2.7-7.7,2.7-11.9
					C524.8,119.4,524.6,117.5,524.1,115.8z"/>
			</g>
			<g>
				<path class="st2" d="M589.1,142.3c-0.6,0.3-1.5,0.8-2.8,1.5c-1.3,0.7-2.7,1.3-4.2,1.9c-1.5,0.6-3,1.2-4.5,1.7
					c-1.7,0.6-2.6,0.7-3.1,0.7c-0.7,0-0.7-0.1-0.7-0.6c0-0.2,0.1-0.9,1-3.3c0.7-1.9,1.6-4,2.7-6.4c1.1-2.3,2.2-4.8,3.4-7.3
					c1.2-2.5,2.3-4.6,3.2-6.2l1.4-2.7l-3,0.5c-0.3,0.1-0.6,0.1-1,0.2c0.5-0.1,0.8-0.2,1.2-0.4l1.7-0.6l-0.9-1.6
					c-1.7-3-4.6-5-8.5-5.9c-3.7-0.8-7.4-1.2-11-1.2c-4.9,0-9.8,0.6-14.5,1.7c-4.8,1.1-9.1,3.4-12.9,6.8c-3.7,3.5-6.9,7.1-9.3,10.7
					c-2.6,3.8-3.9,8.6-3.9,14.3c0,4.2,1,7.4,3,9.5c2,2.2,5.3,3.3,9.7,3.3c2.7,0,5.2-0.5,7.4-1.4c2.1-0.9,4.1-2,5.9-3.4
					c1.8-1.3,3.5-2.7,5-4.2c0.6-0.5,1.2-1.1,1.7-1.5c-0.1,0.6-0.2,1.2-0.2,1.9c0,2.8,0.8,5,2.4,6.4c1.5,1.4,3.6,2.1,6,2.1
					c2,0,4.3-0.4,7-1.2c2.6-0.8,5.1-1.7,7.6-2.7c2.4-1.1,4.7-2.2,6.8-3.3c2.1-1.2,3.6-2.2,4.6-3.1l0.4-0.3l0.1-0.5
					c0.4-1.6,0.4-1.9,0.4-2.1c0,0,0-0.3,0.2-2l0.3-2.9L589.1,142.3z M558.1,122.6c2.2-1.4,4.2-2.2,5.8-2.2c1.1,0,1.4,0.4,1.6,0.9
					c0.5,1.1,0.8,2.1,1.1,2.7l0.4,1.1l-0.3,0.1l-0.8,1.6c-1,1.8-2.2,3.8-3.7,6c-1.4,2.2-3.1,4.2-4.8,6.1c-1.7,1.9-3.6,3.4-5.5,4.7
					c-1.8,1.2-3.5,1.7-5.3,1.7c-1.6,0-1.9-0.5-2-0.7c-0.4-0.7-0.7-1.5-0.7-2.2c0-1.9,0.7-4.1,2.1-6.7c1.5-2.6,3.3-5.1,5.4-7.4
					C553.5,126.1,555.8,124.2,558.1,122.6z"/>
			</g>
		</g>
	</g>
</mask>
<g class="st3">
	<linearGradient id="SVGID_2_" gradientUnits="userSpaceOnUse" x1="129.1831" y1="121.1998" x2="100.9331" y2="116.4498">
		<stop  offset="0" style="stop-color:#000000"/>
		<stop  offset="1" style="stop-color:#000000;stop-opacity:0"/>
	</linearGradient>
	<polygon class="st4" points="112.8,110.3 103.8,128.3 88.8,125.3 107.8,106.3 	"/>
	<linearGradient id="SVGID_3_" gradientUnits="userSpaceOnUse" x1="101.2559" y1="116.7011" x2="141.7559" y2="120.4511">
		<stop  offset="0" style="stop-color:#000000"/>
		<stop  offset="1" style="stop-color:#000000;stop-opacity:0"/>
	</linearGradient>
	<path class="st5" d="M131.8,115.3l-7,14c0,0,11,2,18,0s3-19,3-19L131.8,115.3z"/>
	<linearGradient id="SVGID_4_" gradientUnits="userSpaceOnUse" x1="20.3685" y1="132.1104" x2="30.8685" y2="119.9438">
		<stop  offset="0" style="stop-color:#000000"/>
		<stop  offset="0.2099" style="stop-color:#000000;stop-opacity:0.876"/>
		<stop  offset="1" style="stop-color:#000000;stop-opacity:0"/>
	</linearGradient>
	<path class="st6" d="M21.8,121.3c0.2-0.5,0.6-1.1,1-1.7c3.1-4.4,10.2-11.3,12-11.3c2,0,8,10,6,10s-10,4-11,6s-4,2-4,2L21.8,121.3"
		/>
	<linearGradient id="SVGID_5_" gradientUnits="userSpaceOnUse" x1="90.8547" y1="117.5029" x2="102.6304" y2="100.3482">
		<stop  offset="0" style="stop-color:#000000"/>
		<stop  offset="1" style="stop-color:#000000;stop-opacity:0"/>
	</linearGradient>
	<polygon class="st7" points="92.8,105.3 103.8,108.3 110.8,100.3 98.8,94.3 	"/>
	<linearGradient id="SVGID_6_" gradientUnits="userSpaceOnUse" x1="90.4619" y1="111.9955" x2="77.7952" y2="127.8289">
		<stop  offset="0" style="stop-color:#000000"/>
		<stop  offset="0.2099" style="stop-color:#000000;stop-opacity:0.876"/>
		<stop  offset="1" style="stop-color:#000000;stop-opacity:0"/>
	</linearGradient>
	<path class="st8" d="M78.8,122.3c4,1,10,2,10,2l-7,10l-15-4l9-9L78.8,122.3z"/>
	<linearGradient id="SVGID_7_" gradientUnits="userSpaceOnUse" x1="180.7628" y1="106.78" x2="168.7628" y2="114.1133">
		<stop  offset="0" style="stop-color:#000000"/>
		<stop  offset="0.2099" style="stop-color:#000000;stop-opacity:0.876"/>
		<stop  offset="1" style="stop-color:#000000;stop-opacity:0"/>
	</linearGradient>
	<path class="st9" d="M163.8,112.3c4-2,6-3,7-4s1,8,1,8l-5,4L163.8,112.3z"/>
	<linearGradient id="SVGID_8_" gradientUnits="userSpaceOnUse" x1="116.6317" y1="126.492" x2="129.8817" y2="136.367">
		<stop  offset="0" style="stop-color:#000000"/>
		<stop  offset="0.2099" style="stop-color:#000000;stop-opacity:0.876"/>
		<stop  offset="1" style="stop-color:#000000;stop-opacity:0"/>
	</linearGradient>
	<path class="st10" d="M124.8,129.3l-7,15l10,7l18-20l-4-2C141.8,129.3,132.8,131.3,124.8,129.3z"/>
	<linearGradient id="SVGID_9_" gradientUnits="userSpaceOnUse" x1="296.321" y1="144.6144" x2="284.321" y2="149.1144">
		<stop  offset="0" style="stop-color:#000000"/>
		<stop  offset="0.2099" style="stop-color:#000000;stop-opacity:0.876"/>
		<stop  offset="1" style="stop-color:#000000;stop-opacity:0"/>
	</linearGradient>
	<path class="st11" d="M289.8,143.3l-2,9c0,0-3,2-6,3s-1-10-1-10L289.8,143.3z"/>
	<linearGradient id="SVGID_10_" gradientUnits="userSpaceOnUse" x1="231.5619" y1="110.9734" x2="251.2286" y2="130.8067">
		<stop  offset="0" style="stop-color:#000000"/>
		<stop  offset="0.2099" style="stop-color:#000000;stop-opacity:0.876"/>
		<stop  offset="1" style="stop-color:#000000;stop-opacity:0"/>
	</linearGradient>
	<path class="st12" d="M262.8,120.3c-6,0-20,9-22,14c-1.5,3.7,1,10,2,10S262.8,120.3,262.8,120.3z"/>
	<linearGradient id="SVGID_11_" gradientUnits="userSpaceOnUse" x1="152.4037" y1="47.7797" x2="175.2298" y2="59.1927">
		<stop  offset="0" style="stop-color:#000000"/>
		<stop  offset="0.2099" style="stop-color:#000000;stop-opacity:0.876"/>
		<stop  offset="1" style="stop-color:#000000;stop-opacity:0"/>
	</linearGradient>
	<path class="st13" d="M176.8,49.3c0-1.2-12.8,7.5-12,13c1,6.7,14.1,8,14,5l2-12C179.9,56.1,185.8,51.2,176.8,49.3z"/>
	
		<linearGradient id="SVGID_12_" gradientUnits="userSpaceOnUse" x1="200.1236" y1="163.6184" x2="184.4986" y2="146.4934" gradientTransform="matrix(0.8652 0.5015 -0.5015 0.8652 94.8157 -71.2336)">
		<stop  offset="0" style="stop-color:#000000"/>
		<stop  offset="0.2099" style="stop-color:#000000;stop-opacity:0.876"/>
		<stop  offset="1" style="stop-color:#000000;stop-opacity:0"/>
	</linearGradient>
	<path class="st14" d="M190.8,134.9c0.7,2.8,1.2,6,1.5,8.5c0.3,2.4-1.1,4.7-3.4,5.5c-4.6,1.6-12.3,3.8-16.8,2.6
		c-4.5-1.1-4.9-7.6-4.7-11.8c0.1-2.2,1.6-4.1,3.7-4.7l13.3-3.8C187.2,130.5,190.1,132.1,190.8,134.9z"/>
	<linearGradient id="SVGID_13_" gradientUnits="userSpaceOnUse" x1="327.5405" y1="147.5965" x2="319.0068" y2="148.5718">
		<stop  offset="0" style="stop-color:#000000"/>
		<stop  offset="0.2099" style="stop-color:#000000;stop-opacity:0.876"/>
		<stop  offset="1" style="stop-color:#000000;stop-opacity:0"/>
	</linearGradient>
	<path class="st15" d="M322.3,143.5c0.2,0.5,0.3,1.1,0,1.6c-0.8,1.7-2.4,5.7-1.6,7.2c0.6,1.1-0.8,1.9-2,2.4c-1,0.4-2.2-0.2-2.4-1.3
		c-0.8-3.2-2-9.4-0.5-10.1c1.5-0.7,4-0.9,5.3-1c0.5,0,0.9,0.2,1.1,0.6L322.3,143.5z"/>
	<linearGradient id="SVGID_14_" gradientUnits="userSpaceOnUse" x1="299.0194" y1="98.9123" x2="321.2565" y2="107.5202">
		<stop  offset="0" style="stop-color:#000000"/>
		<stop  offset="0.2099" style="stop-color:#000000;stop-opacity:0.876"/>
		<stop  offset="1" style="stop-color:#000000;stop-opacity:0"/>
	</linearGradient>
	<path class="st16" d="M336.8,83.3c0,0-15,13-17,18s-7,24-7,27s2,7,2,7L336.8,83.3z"/>
	<linearGradient id="SVGID_15_" gradientUnits="userSpaceOnUse" x1="359.3437" y1="152.6872" x2="349.7577" y2="149.074">
		<stop  offset="0" style="stop-color:#000000"/>
		<stop  offset="0.2099" style="stop-color:#000000;stop-opacity:0.876"/>
		<stop  offset="1" style="stop-color:#000000;stop-opacity:0"/>
	</linearGradient>
	<polygon class="st17" points="355.8,142.3 351.8,151.3 350.8,152.3 348.8,154.3 344.8,156.3 348.8,143.3 	"/>
	<linearGradient id="SVGID_16_" gradientUnits="userSpaceOnUse" x1="423.5559" y1="136.9297" x2="400.5011" y2="128.2398">
		<stop  offset="0" style="stop-color:#000000"/>
		<stop  offset="0.2099" style="stop-color:#000000;stop-opacity:0.876"/>
		<stop  offset="1" style="stop-color:#000000;stop-opacity:0"/>
	</linearGradient>
	<path class="st18" d="M394.1,127.5c-0.4-1.9,0.1-4,1.5-5.4c1.4-1.4,3.6-2.4,7.1-0.9c7,3,6.2,8.8,4,11c-2,2-4,3-8,3
		C396,135.3,394.7,130.5,394.1,127.5z"/>
	<linearGradient id="SVGID_17_" gradientUnits="userSpaceOnUse" x1="384.8263" y1="143.9603" x2="396.6974" y2="139.6803">
		<stop  offset="0" style="stop-color:#000000"/>
		<stop  offset="0.2099" style="stop-color:#000000;stop-opacity:0.876"/>
		<stop  offset="1" style="stop-color:#000000;stop-opacity:0"/>
	</linearGradient>
	<path class="st19" d="M392.8,138.3c0,0,1,5,2,6s1,1,1,1l7-2l-7-9L392.8,138.3z"/>
	<linearGradient id="SVGID_18_" gradientUnits="userSpaceOnUse" x1="428.9789" y1="142.2619" x2="415.2984" y2="148.6636">
		<stop  offset="0" style="stop-color:#000000"/>
		<stop  offset="0.2099" style="stop-color:#000000;stop-opacity:0.876"/>
		<stop  offset="1" style="stop-color:#000000;stop-opacity:0"/>
	</linearGradient>
	<path class="st20" d="M419.8,143.3c0,0,1,6,2,7s-11,7-11,7l-2-12L419.8,143.3z"/>
	<linearGradient id="SVGID_19_" gradientUnits="userSpaceOnUse" x1="364.1781" y1="148.4436" x2="368.4594" y2="151.8186">
		<stop  offset="0" style="stop-color:#000000"/>
		<stop  offset="0.2099" style="stop-color:#000000;stop-opacity:0.876"/>
		<stop  offset="1" style="stop-color:#000000;stop-opacity:0"/>
	</linearGradient>
	<polygon class="st21" points="373.8,143.3 361.8,159.3 369.8,157.3 	"/>
	<linearGradient id="SVGID_20_" gradientUnits="userSpaceOnUse" x1="348.3168" y1="88.8657" x2="359.0668" y2="94.7824">
		<stop  offset="0" style="stop-color:#000000"/>
		<stop  offset="0.2099" style="stop-color:#000000;stop-opacity:0.876"/>
		<stop  offset="1" style="stop-color:#000000;stop-opacity:0"/>
	</linearGradient>
	<path class="st22" d="M363.8,86.3c0,0-5,3-6,9s0,10,0,10S370.8,88.3,363.8,86.3z"/>
	<linearGradient id="SVGID_21_" gradientUnits="userSpaceOnUse" x1="462.2597" y1="149.6042" x2="467.6556" y2="140.589">
		<stop  offset="0" style="stop-color:#000000"/>
		<stop  offset="0.2099" style="stop-color:#000000;stop-opacity:0.876"/>
		<stop  offset="1" style="stop-color:#000000;stop-opacity:0"/>
	</linearGradient>
	<path class="st23" d="M464.8,139.3l-1,2c0,0,4,4,5,3s1-1,1-1l2-3l-6-3L464.8,139.3"/>
	<linearGradient id="SVGID_22_" gradientUnits="userSpaceOnUse" x1="461.8446" y1="143.4144" x2="452.7064" y2="150.0143">
		<stop  offset="0" style="stop-color:#000000"/>
		<stop  offset="0.2099" style="stop-color:#000000;stop-opacity:0.876"/>
		<stop  offset="1" style="stop-color:#000000;stop-opacity:0"/>
	</linearGradient>
	<path class="st24" d="M446.8,146.3l3,13l11-7c0.1,0.1-8-6-8-6H446.8z"/>
	<linearGradient id="SVGID_23_" gradientUnits="userSpaceOnUse" x1="471.8602" y1="119.8922" x2="466.4018" y2="123.1006">
		<stop  offset="0" style="stop-color:#000000"/>
		<stop  offset="0.2099" style="stop-color:#000000;stop-opacity:0.876"/>
		<stop  offset="1" style="stop-color:#000000;stop-opacity:0"/>
	</linearGradient>
	<path class="st25" d="M463.8,121.3c0,0,1-1,2-1s3,3,3,4s0,1,0,1h-3L463.8,121.3z"/>
	<linearGradient id="SVGID_24_" gradientUnits="userSpaceOnUse" x1="427.4226" y1="131.5714" x2="443.9226" y2="135.1964">
		<stop  offset="0" style="stop-color:#000000"/>
		<stop  offset="0.2099" style="stop-color:#000000;stop-opacity:0.876"/>
		<stop  offset="1" style="stop-color:#000000;stop-opacity:0"/>
	</linearGradient>
	<path class="st26" d="M452.8,123.3c0,0-2-2-7,1s-10,10-9,15s4,10,7,10S452.8,123.3,452.8,123.3z"/>
	<linearGradient id="SVGID_25_" gradientUnits="userSpaceOnUse" x1="503.7576" y1="109.503" x2="515.8826" y2="122.128">
		<stop  offset="0" style="stop-color:#000000"/>
		<stop  offset="0.2099" style="stop-color:#000000;stop-opacity:0.876"/>
		<stop  offset="1" style="stop-color:#000000;stop-opacity:0"/>
	</linearGradient>
	<path class="st27" d="M517.8,114.3c0,0-10,9-9,11s5,8,9,4S522.8,113.3,517.8,114.3z"/>
	<linearGradient id="SVGID_26_" gradientUnits="userSpaceOnUse" x1="529.5619" y1="111.9734" x2="549.2286" y2="131.8067">
		<stop  offset="0" style="stop-color:#000000"/>
		<stop  offset="0.2099" style="stop-color:#000000;stop-opacity:0.876"/>
		<stop  offset="1" style="stop-color:#000000;stop-opacity:0"/>
	</linearGradient>
	<path class="st28" d="M560.8,121.3c-6,0-20,9-22,14c-1.5,3.7,1,10,2,10S560.8,121.3,560.8,121.3z"/>
	<linearGradient id="SVGID_27_" gradientUnits="userSpaceOnUse" x1="605.5777" y1="142.2854" x2="587.5607" y2="148.0423">
		<stop  offset="0" style="stop-color:#000000"/>
		<stop  offset="0.2099" style="stop-color:#000000;stop-opacity:0.876"/>
		<stop  offset="1" style="stop-color:#000000;stop-opacity:0"/>
	</linearGradient>
	<polygon class="st29" points="584.8,141.3 582.8,157.3 593.8,151.3 594.8,139.3 	"/>
</g>
</svg>
