<?xml version="1.0" encoding="utf-8"?>
<!-- Generator: Adobe Illustrator 22.1.0, SVG Export Plug-In . SVG Version: 6.00 Build 0)  -->
<svg version="1.1" id="Capa_1" xmlns="http://www.w3.org/2000/svg" xmlns:xlink="http://www.w3.org/1999/xlink" x="0px" y="0px"
	 viewBox="0 0 60 60" style="enable-background:new 0 0 60 60;" xml:space="preserve">
<style type="text/css">
	.st0{fill:#2F2F2F;}
</style>
<g>
	<path class="st0" d="M48,30.4h-3.3c-0.6,0-1.1-0.4-1.3-0.9l-1.3-3C41.4,25,39.9,24,38.2,24h-0.8v-0.7c0.4,0,0.7-0.3,0.7-0.7v-1.4
		h2.1c1.9,0,3.5-1.6,3.5-3.5V3.5c0-1.9-1.6-3.5-3.5-3.5H28.9c-1.9,0-3.5,1.6-3.5,3.5v14.1c0,1.9,1.6,3.5,3.5,3.5h2.1v1.4
		c0,0.4,0.3,0.7,0.7,0.7V24H31c-1.7,0-3.2,1-3.9,2.5l-1.3,3c-0.2,0.5-0.7,0.9-1.3,0.9h-6.4c-0.3,0-0.5-0.2-0.6-0.4l-0.1-0.2
		c-0.2-0.5-0.7-0.8-1.3-0.8H15c-0.5,0-1,0.3-1.3,0.8L13.6,30c-0.1,0.2-0.4,0.4-0.6,0.4h-1c-2.7,0-4.9,2.2-4.9,4.9v19.8
		c0,2.7,2.2,4.9,4.9,4.9h36c2.7,0,4.9-2.2,4.9-4.9V35.3C52.9,32.6,50.7,30.4,48,30.4z M28.9,10.6c-1.2,0-2.1-0.9-2.1-2.1V3.5
		c0-1.2,0.9-2.1,2.1-2.1h11.3c1.2,0,2.1,0.9,2.1,2.1v4.9c0,1.2-0.9,2.1-2.1,2.1H28.9z M33.9,23.3h1.4V24h-1.4V23.3z M21.5,38.8
		c-1,0-1.8-0.8-1.8-1.8c0-1,0.8-1.8,1.8-1.8c1,0,1.8,0.8,1.8,1.8C23.3,38,22.5,38.8,21.5,38.8z M34.2,55.8c-6,0-10.9-4.9-10.9-10.9
		s4.9-10.9,10.9-10.9s10.9,4.9,10.9,10.9S40.3,55.8,34.2,55.8z M43.1,44.8c0,4.9-4,8.8-8.8,8.8s-8.8-4-8.8-8.8s4-8.8,8.8-8.8
		C39.1,36,43.1,40,43.1,44.8z"/>
</g>
</svg>
